<svg width="40" height="40" viewBox="0 0 40 40" fill="none" xmlns="http://www.w3.org/2000/svg">
<circle cx="19.5" cy="19.5" r="18.5" stroke="#8e8e8e" stroke-width="2"/>
<circle cx="19.5" cy="19.5" r="5.5" stroke="#8e8e8e" stroke-width="2"/>
<circle cx="20" cy="7" r="2" stroke="#8e8e8e" stroke-width="2"/>
<circle cx="10.3336" cy="11.3336" r="2.06429" transform="rotate(-45 10.3336 11.3336)" stroke="#8e8e8e" stroke-width="2"/>
<path d="M7 18C8.10457 18 9 18.8954 9 20C9 21.1046 8.10457 22 7 22C5.89543 22 5 21.1046 5 20C5 18.8954 5.89543 18 7 18Z" stroke="#8e8e8e" stroke-width="2"/>
<circle cx="11.3336" cy="28.3336" r="2.06429" transform="rotate(-135 11.3336 28.3336)" stroke="#8e8e8e" stroke-width="2"/>
<circle cx="20" cy="33" r="2" stroke="#8e8e8e" stroke-width="2"/>
<circle cx="28.3336" cy="28.3336" r="2.06429" transform="rotate(-45 28.3336 28.3336)" stroke="#8e8e8e" stroke-width="2"/>
<path d="M32 18C33.1046 18 34 18.8954 34 20C34 21.1046 33.1046 22 32 22C30.8954 22 30 21.1046 30 20C30 18.8954 30.8954 18 32 18Z" stroke="#8e8e8e" stroke-width="2"/>
<circle cx="28.3336" cy="11.3336" r="2.06429" transform="rotate(-135 28.3336 11.3336)" stroke="#8e8e8e" stroke-width="2"/>
</svg>
