<svg width="40" height="40" viewBox="0 0 40 40" fill="none" xmlns="http://www.w3.org/2000/svg">
<path d="M27.9677 13.4364L30 15.1636L30 39H13.7419L12.7258 37.6182M26.2742 9.29091C27.2903 8.25455 27.1548 1 21.1935 1C13.7419 1 13.7419 9.29091 17.4677 11.3636M17.4677 5.49091L9 12.0545L9 35.8909H26.2742L26.2742 12.0545L17.4677 5.49091ZM17.4677 9.29091C18.4839 9.29091 19.8387 10.0509 19.8387 11.7091C19.8387 13.3673 18.3712 14.1273 17.4677 14.1273C16.5643 14.1273 15.0968 13.3673 15.0968 11.7091C15.0968 10.0509 16.4516 9.29091 17.4677 9.29091ZM13.0645 23.8L15.7742 22.4182L16.1129 19.3091L18.4839 21.3818L21.5323 21.0364L20.1774 23.8L21.5323 26.5636L18.4839 26.2182L16.4516 28.2909L15.7742 25.1818L13.0645 23.8Z" stroke="#8e8e8e" stroke-width="2" stroke-linecap="round" stroke-linejoin="round"/>
</svg>
