<svg xmlns="http://www.w3.org/2000/svg" width="24" height="24" viewBox="0 0 24 24" fill="none">
  <path fill-rule="evenodd" clip-rule="evenodd" d="M7.13635 5.02485C6.75553 4.62485 6.13811 4.62485 5.75729 5.02485C5.37647 5.42484 5.37647 6.07337 5.75729 6.47336L10.529 11.4854L5.06222 17.2275C4.68141 17.6275 4.68141 18.276 5.06222 18.676C5.44304 19.076 6.06047 19.076 6.44129 18.676L11.9081 12.9339L17.3749 18.676C17.7557 19.076 18.3731 19.076 18.7539 18.676C19.1347 18.276 19.1347 17.6274 18.7539 17.2275L13.2871 11.4854L18.0589 6.47337C18.4397 6.07337 18.4397 5.42485 18.0589 5.02486C17.678 4.62486 17.0606 4.62486 16.6798 5.02486L11.9081 10.0369L7.13635 5.02485Z" fill="#9999CC"/>
</svg>