<svg width="40" height="40" viewBox="0 0 40 40" fill="none" xmlns="http://www.w3.org/2000/svg">
<path fill-rule="evenodd" clip-rule="evenodd" d="M20 22.7686C21.4755 22.7686 22.8906 22.1827 23.9342 21.1396C24.9778 20.0965 25.5645 18.6817 25.5652 17.2062C25.5652 15.7302 24.9789 14.3147 23.9352 13.271C22.8915 12.2273 21.476 11.641 20 11.641C18.524 11.641 17.1085 12.2273 16.0648 13.271C15.0211 14.3147 14.4348 15.7302 14.4348 17.2062C14.4355 18.6817 15.0222 20.0965 16.0658 21.1396C17.1094 22.1827 18.5245 22.7686 20 22.7686Z" stroke="#8e8e8e" stroke-width="2" stroke-linecap="square"/>
<path fill-rule="evenodd" clip-rule="evenodd" d="M35 17.4282C35 30.2859 20 38 20 38C20 38 5 30.2859 5 17.4282C5.00199 13.3352 6.5833 9.41064 9.3962 6.51744C12.2091 3.62424 16.0233 1.99932 20 2C28.2825 2 35 8.90873 35 17.4282Z" stroke="#8e8e8e" stroke-width="2" stroke-linecap="square"/>
</svg>
