<svg width="32" height="32" viewBox="0 0 32 32" fill="none" xmlns="http://www.w3.org/2000/svg">
<path d="M12.872 8.31132C12.586 7.35741 12.3894 6.37898 12.2847 5.38866C12.18 4.40132 11.318 3.66666 10.3253 3.66666H5.71999C4.53533 3.66666 3.62333 4.68999 3.72733 5.86932C4.77733 17.7553 14.2453 27.2227 26.1313 28.2733C27.3113 28.3773 28.334 27.4687 28.334 26.284V22.1773C28.334 20.6787 27.5993 19.82 26.612 19.7153C25.6217 19.6108 24.6433 19.4144 23.6893 19.1287C23.1237 18.961 22.5233 18.9494 21.9517 19.0953C21.3801 19.2412 20.8587 19.5391 20.4427 19.9573L18.4713 21.9287C14.9163 20.0027 11.998 17.0844 10.072 13.5293L12.0433 11.558C12.4617 11.142 12.7597 10.6206 12.9057 10.049C13.0517 9.47742 13.0396 8.87696 12.872 8.31132Z" stroke="#9999cc" stroke-width="2" stroke-linecap="round" stroke-linejoin="round"/>
</svg>
