<svg width="32" height="24" viewBox="0 0 32 24" fill="none" xmlns="http://www.w3.org/2000/svg">
<path d="M32 19.9999C32 20.9429 31.6254 21.8473 30.9586 22.514C30.2918 23.1808 29.3874 23.5554 28.4444 23.5554H3.55556C2.61256 23.5554 1.70819 23.1808 1.0414 22.514C0.374602 21.8473 0 20.9429 0 19.9999V3.99989C0 3.0569 0.374602 2.15253 1.0414 1.48573C1.70819 0.818938 2.61256 0.444336 3.55556 0.444336H28.4444C29.3874 0.444336 30.2918 0.818938 30.9586 1.48573C31.6254 2.15253 32 3.0569 32 3.99989V19.9999Z" fill="#DE2910"/>
<path d="M9.89865 3.97964L10.5529 4.29608L11.0764 3.79297L10.9778 4.51297L11.6178 4.85608L10.9031 4.98408L10.7751 5.69875L10.432 5.05875L9.71199 5.15741L10.2151 4.63386L9.89865 3.97964ZM14.0453 6.59386L13.7289 7.24719L14.232 7.77164L13.5129 7.67208L13.1698 8.31297L13.0418 7.59741L12.3262 7.46941L12.9671 7.1263L12.8675 6.40719L13.392 6.9103L14.0453 6.59386ZM13.1947 9.95297L13.4329 10.6392L14.1591 10.6543L13.5804 11.0925L13.7911 11.7885L13.1947 11.3734L12.5982 11.7885L12.808 11.0925L12.2293 10.6543L12.9555 10.6392L13.1947 9.95297ZM9.89865 12.8685L10.5529 13.185L11.0764 12.6819L10.9778 13.4019L11.6178 13.745L10.9031 13.873L10.7751 14.5876L10.432 13.9476L9.71199 14.0463L10.2151 13.5227L9.89865 12.8685ZM6.22221 5.7343L7.04799 8.10852L9.55999 8.16008L7.55732 9.6783L8.28532 12.0836L6.22221 10.6481L4.1591 12.0836L4.8871 9.6783L2.88443 8.16008L5.39643 8.10852L6.22221 5.7343Z" fill="#FFDE02"/>
</svg>
