<svg width="190" height="64" viewBox="0 0 190 64" fill="none" xmlns="http://www.w3.org/2000/svg">
<path d="M0 0.0288197V63.8396H26.1551V37.5686H52.9423V25.0299H26.1551V12.57H52.9423V0.0288197H0ZM69.7722 0.0288197L52.7046 63.8396H65.188L69.5345 47.7275H88.5768L92.845 63.8396H119.157L102.168 0.0288197H69.7722ZM129.903 0.0288197C129.29 0.0274804 128.684 0.147702 128.117 0.382584C127.551 0.617466 127.036 0.962381 126.603 1.39753C126.17 1.83268 125.827 2.34949 125.593 2.91829C125.359 3.4871 125.239 4.09669 125.24 4.71208V59.1538C125.24 61.7443 127.324 63.837 129.903 63.837H185.293C187.872 63.837 190.034 61.7443 190.034 59.1538V25.0299H157.558V37.5686H167.358V51.6158H147.762V12.57H167.358V17.2533H190.034V4.71208C190.034 2.11648 187.872 0.0288197 185.293 0.0288197H129.903ZM79.0165 12.0925L85.6539 37.0149H72.3791L79.0165 12.0925Z" fill="#8E8E8E"/>
</svg>
