<svg width="176" height="84" viewBox="0 0 176 84" fill="none" xmlns="http://www.w3.org/2000/svg">
<path d="M0 6.42537C0 2.87674 2.86411 0 6.39716 0H169.603C173.136 0 176 2.87674 176 6.42537V77.5746C176 81.1233 173.136 84 169.603 84H6.39716C2.86411 84 0 81.1233 0 77.5746V6.42537Z" fill="#8E8E8E"/>
<path d="M0 72H176V77.8113C176 81.2292 173.136 84 169.603 84H6.39716C2.86411 84 0 81.2292 0 77.8113V72Z" fill="#8E8E8E"/>
<path d="M0 67H176V72H0V67Z" fill="white"/>
<path fill-rule="evenodd" clip-rule="evenodd" d="M22.2078 18.2622C22.2078 17.5651 22.766 17 23.4545 17H28.5195H33.5844H44.4156H49.4026H54.5455C55.234 17 55.7922 17.5651 55.7922 18.2622V24.2575C55.7922 24.9546 55.234 25.5197 54.5455 25.5197H44.4156C43.727 25.5197 43.1688 24.9546 43.1688 24.2575V22.0487C43.1688 21.613 42.82 21.2599 42.3896 21.2599H35.6104C35.18 21.2599 34.8312 21.613 34.8312 22.0487V28.9118C34.8312 29.3475 35.18 29.7007 35.6104 29.7007H48.6234H49.4026H58.7532C59.4418 29.7007 60 30.2658 60 30.9629V49.7378C60 50.4349 59.4418 51 58.7532 51H49.4026H48.6234H29.3766H28.5195H19.2468C18.5582 51 18 50.4349 18 49.7378V39.4037C18 38.7066 18.5582 38.1415 19.2468 38.1415H29.3766C30.0652 38.1415 30.6234 38.7066 30.6234 39.4037V45.9513C30.6234 46.387 30.9722 46.7401 31.4026 46.7401H46.5974C47.0278 46.7401 47.3766 46.387 47.3766 45.9513V34.7494C47.3766 34.3137 47.0278 33.9606 46.5974 33.9606H33.5844H28.5195H23.4545C22.766 33.9606 22.2078 33.3955 22.2078 32.6984V18.2622Z" fill="white"/>
<path fill-rule="evenodd" clip-rule="evenodd" d="M66 18.2622C66 17.5651 66.5685 17 67.2698 17H79.7302C80.4315 17 81 17.5651 81 18.2622V29.1925C81 29.3331 81.171 29.4035 81.271 29.3041L85.1912 25.4075L85.2076 25.4239L92.9394 17.7387C93.0663 17.4624 93.2906 17.2395 93.5686 17.1133L93.6032 17.0789L93.617 17.0926C93.7646 17.0329 93.9261 17 94.0952 17H105.444C106.146 17 106.714 17.5651 106.714 18.2622V24.2575C106.714 24.9546 106.146 25.5197 105.444 25.5197H94.0952L-nan -nanL94.0952 25.5197C93.9217 25.5197 93.7427 25.5933 93.6194 25.7147L89.6533 29.6185C89.5908 29.6801 89.5905 29.7804 89.6528 29.8422L97.77 37.9105C97.9188 38.0584 98.1207 38.1415 98.3312 38.1415H109.73C110.431 38.1415 111 38.7066 111 39.4037V49.7378C111 50.4349 110.431 51 109.73 51H97.2698C97.1377 51 97.0103 50.9799 96.8906 50.9427H93.9251C93.7146 50.9427 93.5128 50.8596 93.3639 50.7117L81.271 38.6917C81.171 38.5923 81 38.6627 81 38.8033V39.4037V41.5336V49.7378C81 50.4349 80.4315 51 79.7302 51H67.2698C66.5685 51 66 50.4349 66 49.7378V39.4037C66 38.7066 66.5685 38.1415 67.2698 38.1415H67.3492C67.7875 38.1415 68.1429 37.7883 68.1429 37.3527V30.6473C68.1429 30.2117 67.7875 29.8585 67.3492 29.8585H67.2698C66.5685 29.8585 66 29.2934 66 28.5963V18.2622Z" fill="white"/>
<path fill-rule="evenodd" clip-rule="evenodd" d="M116 18.2279C116 17.5498 116.568 17 117.268 17H126.062H127.805H145.155H147.294H159.732C160.432 17 161 17.5498 161 18.2279V24.214C161 24.8921 160.432 25.4419 159.732 25.4419H145.155C144.455 25.4419 143.887 24.8921 143.887 24.214V21.9116C143.887 21.4878 143.533 21.1442 143.095 21.1442H129.864C129.427 21.1442 129.072 21.4878 129.072 21.9116V27.7442V28.2047V28.6651C129.072 29.089 129.427 29.4326 129.864 29.4326H134.38C134.818 29.4326 135.173 29.089 135.173 28.6651V28.5116C135.173 27.8335 135.74 27.2837 136.44 27.2837H146.977C147.677 27.2837 148.245 27.8335 148.245 28.5116V34.4977C148.245 35.1758 147.677 35.7256 146.977 35.7256H136.44C135.74 35.7256 135.173 35.1758 135.173 34.4977V34.3442C135.173 33.9203 134.818 33.5767 134.38 33.5767H129.864C129.427 33.5767 129.072 33.9203 129.072 34.3442V36.8C129.072 37.2238 129.427 37.5674 129.864 37.5674H130.023C130.723 37.5674 131.29 38.1172 131.29 38.7953V48.7721C131.29 49.4502 130.723 50 130.023 50H117.268C116.568 50 116 49.4502 116 48.7721V38.7953C116 38.1172 116.568 37.5674 117.268 37.5674H117.664C118.101 37.5674 118.456 37.2238 118.456 36.8V30.2C118.456 29.7762 118.101 29.4326 117.664 29.4326H117.268C116.568 29.4326 116 28.8828 116 28.2047V18.2279Z" fill="white"/>
</svg>
