<svg width="220" height="46" viewBox="0 0 220 46" fill="none" xmlns="http://www.w3.org/2000/svg">
<path d="M54.4122 46V39.9562H53.0687C51.4041 39.9058 50.2104 38.69 50.0458 37.2701V8.39416C50.2171 6.9178 51.4373 5.6852 53.0687 5.70803H54.4122V0L35.9389 0V5.70803H37.2824C38.937 5.72549 40.1717 6.95641 40.3053 8.39416V37.2701C40.1733 38.6776 38.9847 39.8733 37.6183 39.9562H35.9389V46H54.4122ZM198.168 0L183.389 0V5.70803L184.733 5.70803C186.373 5.87658 187.546 7.19413 187.42 8.72993V37.2701C187.527 38.7374 186.308 39.9576 184.733 39.9562H183.389V46L198.84 46V39.9562H197.496C195.866 39.8907 194.659 38.7659 194.473 37.2701V16.4526L205.893 46H215.634V8.39416C215.891 6.81539 217.202 5.60999 218.656 5.70803H220V0L204.55 0V5.70803H206.229C207.698 5.66102 208.926 6.84728 208.916 8.39416V26.8613L198.168 0ZM146.779 39.9562C145.166 39.9958 144.971 39.4841 143.756 37.6058C143.607 37.6817 133.655 23.6514 132 21.1533C133.107 19.7179 142.096 6.66161 142.076 6.71533C142.487 5.97664 143.232 5.5707 144.092 5.70803H145.771V0L130.321 0V5.70803H130.992C131.565 5.63853 131.962 5.80775 132.336 6.0438C132.717 6.74723 131.779 8.01374 131.664 8.39416L123.939 19.4745V8.39416C123.845 6.88892 125.051 5.68822 126.626 5.70803H127.969V0L109.16 0V5.70803H110.84C112.184 5.73153 113.352 6.92518 113.527 8.39416V37.2701C113.332 38.7088 112.112 39.929 110.504 39.9562H109.16V46H127.969V39.9562H126.626C125.114 39.973 123.823 38.7414 123.603 37.2701V24.511C124.459 25.442 132.742 37.8157 132.672 37.9416C133.801 39.9837 132.242 39.9837 131.664 39.9562H130.656V46H147.115V39.9562H146.779ZM149.466 46H180.366V34.2482H175.328V37.2701C175.108 38.7145 173.887 39.9048 172.305 39.9562H163.908V24.511H167.267C168.831 24.7816 169.996 25.9417 170.29 27.5328V29.2117H175.328V14.7737H170.29V16.7883C170.232 17.3581 169.959 18.0609 169.282 18.4672C168.94 19.095 168.239 19.3798 167.603 19.4745H163.908V5.70803L171.969 5.70803C173.39 5.66438 174.617 6.86542 174.656 8.39416V11.4161L179.695 11.4161V0L149.466 0V5.70803H150.809C152.445 5.68855 153.659 6.83083 153.832 8.39416V37.2701C153.592 38.735 152.403 39.8689 150.809 39.9562H149.466V46ZM25.5267 46V39.9562H23.5114C22.9096 40.0015 22.1915 39.7044 21.8321 39.2847C21.1368 38.6464 20.8436 37.9299 20.8244 37.2701L20.8244 5.70803L24.855 5.70803C26.4746 5.59622 27.7432 6.85702 27.8779 8.39416V12.4234H32.2443V0L0 0L0 12.4234H4.36641V8.39416C4.51353 7.67562 4.81347 6.95708 5.37405 6.37956C5.88156 5.90042 6.60537 5.60495 7.38931 5.70803L11.4198 5.70803L11.4198 37.2701C11.4252 37.9453 11.1286 38.6642 10.7481 39.2847C10.0622 39.7195 9.3374 40.0116 8.73282 39.9562H6.71756L6.71756 46H25.5267ZM63.145 8.39416C63.0204 6.89026 61.7982 5.67109 60.1221 5.70803H58.7786V0L73.5573 0L81.6183 27.5328L90.0153 0L104.794 0V5.70803L103.45 5.70803C101.866 5.71777 100.636 6.93358 100.427 8.39416V37.2701C100.622 38.7877 101.839 39.97 103.45 39.9562H104.794V46H88V39.9562H88.6718C89.4151 39.9539 90.0361 39.6272 90.3511 38.9489C90.8919 38.5849 91.0911 37.9134 91.0229 37.2701V16.7883L82.2901 46H78.2595L69.8626 16.7883V37.2701C69.7256 37.9268 69.9308 38.5967 70.1985 38.9489C70.7953 39.6335 71.418 39.9565 72.2137 39.9562H72.8855V46L58.7786 46V39.9562H60.1221C61.7478 39.9579 62.9821 38.7532 63.145 37.2701V8.39416Z" fill="#8E8E8E"/>
</svg>
